<svg xmlns="http://www.w3.org/2000/svg" viewBox="-66 -5.3 161.2 304.5">
  <linearGradient id="a" x1="-60.6" x2="-60.6" y1="240" y2="210.4" gradientUnits="userSpaceOnUse" gradientTransform="matrix(1 0 0 -1 0 292.6)">
    <stop offset=".3" stop-color="#EAEAEB"/>
    <stop offset=".3" stop-color="#DCDCDC"/>
    <stop offset=".3" stop-color="#A9A9AA"/>
    <stop offset=".3" stop-color="#969696"/>
    <stop offset=".3" stop-color="#A1A1A1"/>
    <stop offset=".3" stop-color="#BCBCBC"/>
    <stop offset=".4" stop-color="#D0D0D1"/>
    <stop offset=".4" stop-color="#DFDFE0"/>
    <stop offset=".4" stop-color="#E7E7E8"/>
    <stop offset=".5" stop-color="#EAEAEB"/>
    <stop offset=".7" stop-color="#999"/>
    <stop offset=".8" stop-color="#969596"/>
    <stop offset="1" stop-color="#8B8A8B"/>
    <stop offset="1" stop-color="#888688"/>
  </linearGradient>
  <path fill="url(#a)" d="M-59.5 80.7c0 .7-.5 1.3-1 1.3-.8 0-1.3-.6-1.3-1.2v-19c0-.7.5-1 1.2-1 .6 0 1 .3 1 1v19z"/>
  <path fill="#ABABAB" d="M-61.8 61.4v19.3c0 .4 0 .7.4 1v-21c-.3 0-.4.4-.4.7z"/>
  <linearGradient id="b" x1="481.3" x2="481.3" y1="240" y2="210.4" gradientUnits="userSpaceOnUse" gradientTransform="rotate(180 285.188 146.3)">
    <stop offset=".3" stop-color="#EAEAEB"/>
    <stop offset=".3" stop-color="#DCDCDC"/>
    <stop offset=".3" stop-color="#A9A9AA"/>
    <stop offset=".3" stop-color="#969696"/>
    <stop offset=".3" stop-color="#A1A1A1"/>
    <stop offset=".3" stop-color="#BCBCBC"/>
    <stop offset=".4" stop-color="#D0D0D1"/>
    <stop offset=".4" stop-color="#DFDFE0"/>
    <stop offset=".4" stop-color="#E7E7E8"/>
    <stop offset=".5" stop-color="#EAEAEB"/>
    <stop offset=".7" stop-color="#999"/>
    <stop offset=".8" stop-color="#969596"/>
    <stop offset="1" stop-color="#8B8A8B"/>
    <stop offset="1" stop-color="#888688"/>
  </linearGradient>
  <path fill="url(#b)" d="M88 80.7c0 .7.4 1.3 1 1.3.7 0 1.2-.6 1.2-1.2v-19c0-.7-.5-1-1.2-1-.6 0-1 .3-1 1v19z"/>
  <path fill="#ABABAB" d="M90.2 61.4v19.3c0 .4 0 .7-.4 1v-21c.3 0 .4.4.4.7z"/>
  <linearGradient id="c" x1="-60.4" x2="-60.4" y1="212.3" y2="182.8" gradientUnits="userSpaceOnUse" gradientTransform="matrix(1 0 0 -1 0 292.6)">
    <stop offset=".3" stop-color="#EAEAEB"/>
    <stop offset=".3" stop-color="#DCDCDC"/>
    <stop offset=".3" stop-color="#A9A9AA"/>
    <stop offset=".3" stop-color="#969696"/>
    <stop offset=".3" stop-color="#A1A1A1"/>
    <stop offset=".3" stop-color="#BCBCBC"/>
    <stop offset=".4" stop-color="#D0D0D1"/>
    <stop offset=".4" stop-color="#DFDFE0"/>
    <stop offset=".4" stop-color="#E7E7E8"/>
    <stop offset=".5" stop-color="#EAEAEB"/>
    <stop offset=".7" stop-color="#999"/>
    <stop offset=".8" stop-color="#969596"/>
    <stop offset="1" stop-color="#8B8A8B"/>
    <stop offset="1" stop-color="#888688"/>
  </linearGradient>
  <path fill="url(#c)" d="M-59.2 108.5c0 .6-.5 1-1 1-.8 0-1.3-.4-1.3-1V89c0-.5.5-1 1.2-1 .6 0 1 .5 1 1v19.5z"/>
  <path fill="#ABABAB" d="M-61.5 89v19.5c0 .3 0 .6.3.8v-21c-.2.2-.3.5-.3.8z"/>
  <linearGradient id="d" x1="-59.8" x2="-59.8" y1="262.9" y2="248.9" gradientUnits="userSpaceOnUse" gradientTransform="matrix(1 0 0 -1 0 292.6)">
    <stop offset=".3" stop-color="#EAEAEB"/>
    <stop offset=".3" stop-color="#DCDCDC"/>
    <stop offset=".3" stop-color="#A9A9AA"/>
    <stop offset=".3" stop-color="#969696"/>
    <stop offset=".3" stop-color="#A1A1A1"/>
    <stop offset=".3" stop-color="#BCBCBC"/>
    <stop offset=".4" stop-color="#D0D0D1"/>
    <stop offset=".4" stop-color="#DFDFE0"/>
    <stop offset=".4" stop-color="#E7E7E8"/>
    <stop offset=".5" stop-color="#EAEAEB"/>
    <stop offset=".7" stop-color="#999"/>
    <stop offset=".8" stop-color="#969596"/>
    <stop offset="1" stop-color="#8B8A8B"/>
    <stop offset="1" stop-color="#888688"/>
  </linearGradient>
  <path fill="url(#d)" d="M-58.8 42.7c0 .5-.5 1-1 1s-1-.5-1-1v-8.5c0-.5.5-1 1-1s1 .5 1 1v8.5z"/>
  <path fill="#F2F2F2" d="M-38.7 296c-11.6 0-21-9.5-21-21V15.6c0-11.6 9.4-21 21-21H67c11.6 0 21 9.4 21 21V275c0 11.5-9.4 21-21 21H-38.8z"/>
  <path fill="#F1F1F1" d="M-38.7 296c-11.6 0-21-9.5-21-21V15.6c0-11.6 9.4-21 21-21H67c11.6 0 21 9.4 21 21V275c0 11.5-9.4 21-21 21H-38.8z"/>
  <path fill="#F0F0F0" d="M-38.7 296c-11.6 0-21-9.5-21-21V15.6c0-11.6 9.4-21 21-21H67c11.6 0 21 9.4 21 21V275c0 11.5-9.5 21-21 21H-38.8z"/>
  <path fill="#EFEFEF" d="M-38.7 296c-11.6 0-21-9.5-21-21V15.6c0-11.6 9.4-21 21-21H67c11.5 0 21 9.4 21 21V275c0 11.5-9.5 21-21 21H-38.8z"/>
  <path fill="#EEE" d="M-38.7 296c-11.6 0-21-9.5-21-21V15.6c0-11.6 9.4-21 21-21H67c11.5 0 21 9.4 21 21V275c0 11.5-9.5 21-21 21H-38.8z"/>
  <path fill="#EDEDED" d="M-38.7 295.7c-11.6 0-21-9.2-21-20.7V15.7c0-11.6 9.4-21 21-21H67c11.5 0 21 9.4 21 21V275c0 11.5-9.5 20.8-21 20.8H-38.8z"/>
  <path fill="#ECECEC" d="M-38.7 295.7c-11.6 0-21-9.2-21-20.7V15.7c0-11.6 9.4-21 21-21H67c11.5 0 21 9.4 21 21V275c0 11.5-9.5 20.8-21 20.8H-38.8z"/>
  <path fill="#EBEBEB" d="M-38.7 295.7c-11.6 0-21-9.2-21-20.7V15.7c0-11.6 9.4-21 21-21H67c11.5 0 21 9.4 21 21V275c0 11.5-9.5 20.8-21 20.8H-38.8z"/>
  <path fill="#EAEAEA" d="M-38.7 295.7c-11.6 0-21-9.2-21-20.7V15.7c0-11.6 9.4-21 21-21H67c11.5 0 21 9.4 21 21V275c0 11.5-9.5 20.8-21 20.8H-38.8z"/>
  <path fill="#E9E9E9" d="M-38.7 295.7c-11.6 0-21-9.2-21-20.7V15.7c0-11.6 9.4-21 21-21H67c11.5 0 21 9.4 21 21V275c0 11.5-9.5 20.8-21 20.8H-38.8z"/>
  <path fill="#E8E8E8" d="M-38.7 295.7c-11.5 0-21-9.2-21-20.7V15.7c0-11.6 9.5-21 21-21H67c11.5 0 21 9.4 21 21V275c0 11.5-9.5 20.8-21 20.8H-38.8z"/>
  <path fill="#E7E7E7" d="M-38.7 295.7c-11.5 0-21-9.2-21-20.7V15.7c0-11.6 9.7-21 21-21H67c11.5 0 21 9.3 21 20.7v259.3c0 11.5-9.5 20.8-21 20.8H-38.8v.2z"/>
  <path fill="#E6E6E6" d="M-38.7 295.7c-11.5 0-21-9.2-21-20.7V15.7c0-11.6 9.7-21 21-21H67c11.5 0 21 9.3 21 20.7v259.3c0 11.5-9.5 20.7-21 20.7H-38.8v.3z"/>
  <path fill="#E5E5E5" d="M-38.7 295.7c-11.5 0-21-9.3-21-20.7V15.7c0-11.6 9.7-21 21-21H67c11.5 0 20.8 9.3 20.8 20.7v259.3c0 11.4-9.3 20.7-21 20.7H-38.6v.3z"/>
  <path fill="#E4E4E4" d="M-38.7 295.7c-11.5 0-21-9.3-21-20.7V15.7c0-11.6 9.7-21 21-21H67c11.5 0 20.8 9.3 20.8 20.7v259.3c0 11.4-9.3 20.7-21 20.7H-38.6v.3z"/>
  <path fill="#E3E3E3" d="M-38.7 295.7c-11.5 0-21-9.3-21-20.7V15.7c0-11.6 9.7-21 21-21H67c11.4 0 20.8 9.3 20.8 20.7v259.3c0 11.4-9.4 20.7-21 20.7H-38.6v.3z"/>
  <path fill="#E2E2E2" d="M-38.7 295.7c-11.5 0-21-9.3-21-20.7V15.7c0-11.6 9.7-21 21-21H67c11.4 0 20.8 9.3 20.8 20.7v259.3c0 11.4-9.4 20.7-21 20.7H-38.6v.3z"/>
  <path fill="#E1E1E1" d="M-38.7 295.7c-11.5 0-20.8-9.3-20.8-20.7V15.7C-59.5 4-50.2-5-38.7-5H67c11.4 0 20.8 9 20.8 20.5v259.2c0 11.5-9.4 20.8-21 20.8H-38.6v.2z"/>
  <path fill="#E0E0E0" d="M-38.7 295.7c-11.5 0-20.8-9.3-20.8-20.7V15.7C-59.5 4-50.2-5-38.7-5H67c11.4 0 20.8 9 20.8 20.5v259.2c0 11.5-9.4 20.7-21 20.7H-38.6v.3z"/>
  <path fill="#DFDFDF" d="M-38.7 295.7c-11.5 0-20.8-9.3-20.8-20.7V15.7C-59.5 4-50.2-5-38.7-5H67c11.4 0 20.8 9 20.8 20.5v259.2c0 11.5-9.4 20.7-21 20.7H-38.6v.3z"/>
  <path fill="#DEDEDE" d="M-38.7 295.7c-11.5 0-20.8-9.3-20.8-20.7V15.7C-59.5 4-50.2-5-38.7-5H67c11.4 0 20.7 9 20.7 20.5v259.2c0 11.5-9.3 20.7-20.8 20.7H-39l.3.3z"/>
  <path fill="#DDD" d="M-38.7 295.7c-11.5 0-20.8-9.3-20.8-20.7V15.7C-59.5 4-50.2-5-38.7-5H67c11.4 0 20.7 9 20.7 20.5v259.2c0 11.5-9.3 20.7-20.8 20.7H-39l.3.3z"/>
  <path fill="#DCDCDC" d="M-38.7 295.7c-11.4 0-20.8-9.3-20.8-20.7V15.7C-59.5 4-50-5-38.7-5H67c11.4 0 20.7 9 20.7 20.5v259.2c0 11.5-9.3 20.7-20.8 20.7H-39l.3.3z"/>
  <path fill="#DBDBDB" d="M-38.7 295.7c-11.4 0-20.8-9.3-20.8-20.7V15.7C-59.5 4-50-5-38.7-5H67c11.4 0 20.7 9 20.7 20.5v259.2c0 11.5-9.3 20.7-20.8 20.7H-39l.3.3z"/>
  <path fill="#DADADA" d="M-38.7 295.7c-11.4 0-20.7-9.3-20.7-20.7V15.7C-59.4 4.2-50-5-38.7-5H67c11.4 0 20.7 9.2 20.7 20.5v259.2c0 11.5-9.3 20.7-20.8 20.7H-39l.3.3z"/>
  <path fill="#D9D9D9" d="M-38.7 295.5c-11.4 0-20.7-9.2-20.7-20.5V15.7C-59.4 4.2-50-5-38.7-5H67c11.4 0 20.7 9.2 20.7 20.5v259.2c0 11.4-9.3 20.6-20.8 20.6H-39l.3.2z"/>
  <path fill="#D8D8D8" d="M-38.7 295.5c-11.4 0-20.7-9.2-20.7-20.5V15.7C-59.4 4.2-50-5-38.7-5H67c11.4 0 20.7 9.2 20.7 20.5v259.2c0 11.4-9.3 20.6-20.8 20.6H-39l.3.2z"/>
  <path fill="#D7D7D7" d="M-38.7 295.5c-11.4 0-20.7-9.2-20.7-20.5V15.7C-59.4 4.2-50-5-38.7-5H67c11.3 0 20.6 9.2 20.6 20.5v259.2c0 11.4-9.3 20.6-20.7 20.6H-39l.3.2z"/>
  <path fill="#D6D6D6" d="M-38.7 295.5c-11.4 0-20.7-9.2-20.7-20.5V15.7C-59.4 4.2-50-5-38.7-5H67c11.3 0 20.6 9.2 20.6 20.5v259.2c0 11.4-9.3 20.6-20.7 20.6H-39l.3.2z"/>
  <path fill="#D5D5D5" d="M-38.7 295.5c-11.4 0-20.7-9.2-20.7-20.5V15.7C-59.4 4.2-50-5-38.7-5H67c11.3 0 20.6 9.2 20.6 20.5v259.2c0 11.4-9.3 20.6-20.7 20.6H-39l.3.2z"/>
  <path fill="#D4D4D4" d="M-38.7 295.5c-11.4 0-20.7-9.2-20.7-20.5V15.7C-59.4 4.2-50-5-38.7-5H67c11.3 0 20.6 9.2 20.6 20.5v259.2c0 11.4-9.3 20.6-20.7 20.6H-39l.3.2z"/>
  <path fill="#D3D3D3" d="M-38.7 295.5c-11.4 0-20.6-9.2-20.6-20.5V15.7C-59.3 4.2-50-5-38.7-5H67c11.3 0 20.6 9 20.6 20.5v259.2c0 11.4-9.3 20.6-20.7 20.6H-39l.3.2z"/>
  <path fill="#D2D2D2" d="M-38.7 295.4c-11.4 0-20.6-9-20.6-20.4V15.7C-59.3 4.2-50-5-38.7-5H67c11.3 0 20.6 9 20.6 20.5v259.2c0 11.4-9.3 20.5-20.7 20.5H-39l.3.2z"/>
  <path fill="#D1D1D1" d="M-38.7 295.4c-11.4 0-20.6-9-20.6-20.4V15.7C-59.3 4.2-50-5-38.7-5H67c11.3 0 20.5 9 20.5 20.5v259.2c0 11.4-9.2 20.5-20.6 20.5H-39l.3.2z"/>
  <path fill="#D0D0D0" d="M-38.7 295.4c-11.4 0-20.6-9-20.6-20.4V15.7C-59.3 4.2-50-5-38.7-5H67c11.3 0 20.5 9 20.5 20.5v259.2c0 11.4-9.2 20.5-20.6 20.5H-39l.3.2z"/>
  <path fill="#CFCFCF" d="M-38.7 295.4c-11.3 0-20.6-9-20.6-20.4V15.7C-59.3 4.2-50-5-38.7-5H67c11.3 0 20.5 9 20.5 20.5v259.2c0 11.4-9.2 20.5-20.6 20.5H-39l.3.2z"/>
  <path fill="#CECECE" d="M-38.7 295.4c-11.3 0-20.6-9-20.6-20.4V15.7C-59.3 4.3-50-5-38.7-5H67c11.3 0 20.5 9.3 20.5 20.5v259.2c0 11.4-9.2 20.5-20.6 20.5H-39l.3.2z"/>
  <path fill="#CDCDCD" d="M-38.7 295.4c-11.3 0-20.5-9-20.5-20.4V15.7C-59.2 4.3-50-5-38.7-5H67c11.3 0 20.5 9.3 20.5 20.5v259.2c0 11.4-9.2 20.5-20.6 20.5H-39l.3.2z"/>
  <path fill="#CCC" d="M-38.7 295.4c-11.3 0-20.5-9.2-20.5-20.4V15.7c0-11.4 9.2-20.5 20.5-20.5H67c11.3 0 20.5 9 20.5 20.3v259.2c0 11.3-9.2 20.5-20.6 20.5H-39l.3.2z"/>
  <path fill="#CBCBCB" d="M-38.7 295.3c-11.3 0-20.5-9-20.5-20.3V15.7c0-11.4 9.2-20.5 20.5-20.5H67c11.3 0 20.5 9 20.5 20.3v259.2C87.5 286 78.3 295 67 295H-39l.3.3z"/>
  <path fill="#CACACA" d="M-38.7 295.3c-11.3 0-20.5-9-20.5-20.3V15.7c0-11.4 9.2-20.5 20.5-20.5H67c11.2 0 20.4 9 20.4 20.3v259.2C87.4 286 78.2 295 67 295H-39l.3.3z"/>
  <path fill="#C9C9C9" d="M-38.7 295.3c-11.3 0-20.5-9-20.5-20.3V15.7c0-11.4 9.2-20.5 20.5-20.5H67c11.2 0 20.4 9 20.4 20.3v259.2C87.4 286 78.2 295 67 295H-39l.3.3z"/>
  <path fill="#C8C8C8" d="M-38.7 295.3c-11.3 0-20.5-9-20.5-20.3V15.7c0-11.4 9.2-20.5 20.5-20.5H67c11.2 0 20.4 9 20.4 20.3v259.2C87.4 286 78.2 295 67 295H-39l.3.3z"/>
  <path fill="#C7C7C7" d="M-38.7 295.3c-11.3 0-20.5-9-20.5-20.3V15.7c0-11.4 9.2-20.5 20.5-20.5H67c11.2 0 20.4 9 20.4 20.3v259.2C87.4 286 78.2 295 67 295H-39l.3.3z"/>
  <path fill="#C6C6C6" d="M-38.7 295.3c-11.3 0-20.4-9-20.4-20.3V15.7c0-11.4 9-20.5 20-20.5H67c11.2 0 20.4 9 20.4 20.3v259.2C87.4 286 78.2 295 67 295H-39l.3.3z"/>
  <path fill="#C5C5C5" d="M-38.7 295.2c-11.3 0-20.4-9-20.4-20.2V15.7c0-11.4 9-20.4 20-20.4H67c11.2 0 20.4 9 20.4 20.2v259.2C87.4 286 78.2 295 67 295H-39l.3.2z"/>
  <path fill="#C4C4C4" d="M-38.7 295.2c-11.3 0-20.4-9-20.4-20.2V15.7c0-11.4 9-20.4 20-20.4H67c11.2 0 20.4 9 20.4 20.2v259.2C87.4 286 78.2 295 67 295H-39l.3.2z"/>
  <path fill="#C3C3C3" d="M-38.7 295.2c-11.2 0-20.4-9-20.4-20.2V15.7c0-11.4 9-20.4 20-20.4H67c11.2 0 20.3 9 20.3 20.2v259.2c0 11.3-9 20.3-20.4 20.3H-39l.3.2z"/>
  <path fill="#C2C2C2" d="M-38.7 295.2c-11.2 0-20.4-9-20.4-20.2V15.7c0-11.4 9-20.4 20-20.4H67c11.2 0 20.3 9 20.3 20.2v259.2c0 11.3-9 20.3-20.4 20.3H-39l.3.2z"/>
  <path fill="#C1C1C1" d="M-38.7 295.2c-11.2 0-20.4-9-20.4-20.2V15.7c0-11.3 9-20.4 20-20.4H67c11.2 0 20.3 9 20.3 20.2v259.2c0 11.3-9 20.3-20.4 20.3H-39l.3.2z"/>
  <path fill="#C0C0C0" d="M-38.7 295.2c-11.2 0-20.4-9-20.4-20.2V15.7c0-11.3 9-20.4 20-20.4H67c11.2 0 20.3 9 20.3 20.2v259.2c0 11-9 20.3-20.4 20.3H-39l.3.2z"/>
  <path fill="#BFBFBF" d="M-38.7 295.2c-11.2 0-20.3-9-20.3-20.2V15.7c0-11.3 9-20.3 20.3-20.3H67c11.2 0 20.3 9 20.3 20V275c0 11-9 20-20.4 20H-39l.3.2z"/>
  <path fill="#BEBEBE" d="M-38.7 295C-50 295-59 286-59 275V15.6c0-11 9-20 20.3-20H67c11 0 20.3 9 20.3 20v259.2c0 11-9.2 20-20.4 20H-39l.3.4z"/>
  <path fill="#BDBDBD" d="M-38.7 295C-50 295-59 286-59 275V15.6c0-11 9-20 20.3-20H67c11 0 20.2 9 20.2 20v259.2c0 11-9 20-20.3 20H-39l.3.4z"/>
  <path fill="#BCBCBC" d="M-38.7 295C-50 295-59 286-59 275V15.6c0-11 9-20 20.3-20H67c11 0 20.2 9 20.2 20v259.2c0 11-9 20-20.3 20H-39l.3.4z"/>
  <path fill="#BBB" d="M-38.7 295C-50 295-59 286-59 275V15.6c0-11 9-20 20.3-20H67c11 0 20.2 9 20.2 20v259.2c0 11-9 20-20.3 20H-39l.3.4z"/>
  <path fill="#BABABA" d="M-38.7 295C-50 295-59 286-59 275V15.6c0-11 9-20 20.3-20H67c11 0 20.2 9 20.2 20v259.2c0 11-9 20-20.3 20H-39l.3.4z"/>
  <path fill="#B9B9B9" d="M-38.7 295C-50 295-59 286-59 275V15.6c0-11 9-20 20.3-20H67c11 0 20.2 9 20.2 20v259.2c0 11-9 20-20.3 20H-39l.3.4z"/>
  <path fill="#B8B8B8" d="M-38.7 295C-50 295-59 286-59 275V15.6c0-11 9-19.8 21-19.8H67c11 0 20 8.7 20 20V275c0 11-9 20-20.3 20H-38.8z"/>
  <path fill="#B7B7B7" d="M-38.7 295C-50 295-59 286-59 275V15.7c0-11.3 10-20 21-20H67c11 0 20 8.7 20 20V275c0 11-9 20-20.3 20H-38.8z"/>
  <path fill="#B6B6B6" d="M-38.7 295c-11 0-20.2-9-20.2-20V15.7c0-11.3 10-20 21-20H67c11 0 20 8.8 20 20V275c0 11-9 20-20 20H-38.8z"/>
  <path fill="#B5B5B5" d="M-38.7 295c-11 0-20.2-9-20.2-20V15.7c0-11 10-20 21-20H67c11 0 20 9 20 20V275c0 11-9 20-20 20H-38.8z"/>
  <path fill="#B4B4B4" d="M-38.7 295c-11 0-20.2-9-20.2-20V15.7c0-11 10-20 21-20H67c11 0 20 9 20 20V275c0 11-9 20-20 20H-38.8z"/>
  <path fill="#B3B3B3" d="M-38.7 295c-11 0-20.2-9-20.2-20V15.7c0-11 10-20 21-20H67c11 0 20 9 20 20V275c0 11-9 20-20 20H-38.8z"/>
  <path fill="#B2B2B2" d="M-38.7 295c-11 0-20-9-20-20V15.7c0-11 9-20 20-20H67c11 0 20 9 20 20V275c0 11-9 20-20 20H-38.8z"/>
  <path fill="#B1B1B1" d="M-38.7 295c-11 0-20-9-20-20V15.7c0-11 9-20 20-20H67c11 0 20 9 20 20V275c0 11-9 20-20 20H-38.8z"/>
  <path fill="#B0B0B0" d="M-38.7 295c-11 0-20-9-20-20V15.6c0-11 9-20 20-20H67c11 0 20 9 20 20V275c0 11-9 20-20 20H-38.8z"/>
  <path fill="#AFAFAF" d="M-38.7 295c-11 0-20-9-20-20V15.6c0-11 9-20 20-20H67c11 0 20 9 20 20V275c0 11-9 20-20 20H-38.8z"/>
  <path fill="#AEAEAE" d="M-38.7 295c-11 0-20-9-20-20V15.6c0-11 9-20 20-20H67c11 0 20 9 20 20V275c0 11-9 20-20 20H-38.8z"/>
  <path fill="#ADADAD" d="M-38.7 295c-11 0-20-9-20-20V15.6c0-11 9-20 20-20H67c11 0 20 9 20 20V275c0 11-9 20-20 20H-38.8z"/>
  <path fill="#ACACAC" d="M-38.7 295c-11 0-20-9-20-20V15.6c0-11 9-20 20-20H67c11 0 20 9 20 20V275c0 11-9 20-20 20H-38.8z"/>
  <path fill="#ABABAB" d="M-38.7 295c-11 0-20-9-20-20V15.6c0-11 9-20 20-20H67c11 0 20 9 20 20V275c0 11-9 20-20 20H-38.8z"/>
  <path fill="#AAA" d="M-38.7 294.7c-11 0-20-8.7-20-19.7V15.7c0-11 9-20 20-20H67c11 0 20 9 20 20V275c0 11-9 19.8-20 19.8H-38.8z"/>
  <path fill="#A9A9A9" d="M-38.7 294.7c-11 0-20-8.7-20-19.7V15.7c0-11 9-20 20-20H67c11 0 20 9 20 20V275c0 11-9 19.8-20 19.8H-38.8z"/>
  <path fill="#A8A8A8" d="M-38.7 294.7c-11 0-20-8.7-20-19.7V15.7c0-11 9-20 20-20H67c11 0 20 9 20 20V275c0 11-9 19.8-20 19.8H-38.8z"/>
  <path fill="#A7A7A7" d="M-38.7 294.7c-11 0-20-8.8-20-19.7V15.7c0-11 9-20 20-20H67c11 0 20 9 20 20V275c0 11-9 19.8-20 19.8H-38.8z"/>
  <path fill="#A6A6A6" d="M-38.7 294.7c-11 0-20-8.8-20-19.7V15.7c0-11 9-20 20-20H67c11 0 20 9 20 20V275c0 11-9 19.8-20 19.8H-38.8z"/>
  <path fill="#A5A5A5" d="M-38.7 294.7c-11 0-20-8.8-20-19.7V15.7c0-11 9-20 20-20H67c11 0 20 9 20 20V275c0 11-9 19.8-20 19.8H-38.8z"/>
  <path fill="#A4A4A4" d="M-38.7 294.7c-11 0-20-8.8-20-19.7V15.7c0-11 9-19.8 20-19.8H67c11 0 20 8.6 20 19.5v259c0 11-9 19-20 19H-38.8v1z"/>
  <path fill="#A3A3A3" d="M-38.7 294.7c-11 0-20-8.8-20-19.7V15.7c0-11 9-19.8 20-19.8H67c11 0 20 8.6 20 19.5v259c0 11-9 19-20 19H-38.8v1z"/>
  <path fill="#A2A2A2" d="M-38.7 294.7c-11 0-20-8.8-20-19.7V15.7c0-11 9-19.8 20-19.8H67c11 0 19.8 8.6 19.8 19.5v259c0 11-9 19-20 19H-38.6v1z"/>
  <path fill="#A1A1A1" d="M-38.7 294.7c-11 0-20-8.8-20-19.7V15.7c0-11 9-19.8 20-19.8H67c11 0 19.8 8.6 19.8 19.5v259c0 11-9 19-20 19H-38.6v1z"/>
  <path fill="#A0A0A0" d="M-38.7 294.7c-11 0-20-8.8-20-19.7V15.7c0-11 9-19.8 20-19.8H67c11 0 19.8 8.6 19.8 19.5v259c0 11-9 19-20 19H-38.6v1z"/>
  <path fill="#9F9F9F" d="M-38.7 294.7c-11 0-20-8.8-20-19.7V15.7c0-11 9-19.8 20-19.8H67c11 0 19.8 8.6 19.8 19.5v259c0 11-9 19-20 19H-38.6v1z"/>
  <path fill="#9E9E9E" d="M-38.7 294.7c-11 0-19.8-8.8-19.8-19.7V15.7c0-11 9-20 19.8-20H67c11 0 19.8 8.8 19.8 19.7v259.3c0 11-9 19.7-20 19.7H-38.6v.3z"/>
  <path fill="#9D9D9D" d="M-38.7 294.7c-11 0-19.8-8.8-19.8-19.7V15.7c0-11 9-19.7 19.8-19.7H67c11 0 19.8 8.7 19.8 19.6v259c0 11-9 19-20 19H-38.6v1z"/>
  <path fill="#9C9C9C" d="M-38.7 294.7c-11 0-19.8-8.8-19.8-19.7V15.7c0-11 9-19.7 19.8-19.7H67c11 0 19.8 8.8 19.8 19.6v259c0 11-9 19-20 19H-38.6v1z"/>
  <path fill="#9B9B9B" d="M-38.7 294.7c-11 0-19.8-8.8-19.8-19.7V15.7c0-11 9-19.7 19.8-19.7H67c11 0 19.7 8.8 19.7 19.6v259c0 11-8.8 19-19.8 19H-39l.3 1z"/>
  <path fill="#9A9A9A" d="M-38.7 294.7c-11 0-19.8-9-19.8-19.7V15.7c0-11 9-19.7 19.8-19.7H67c11 0 19.7 8.8 19.7 19.6v259c0 10-8.8 19-19.8 19H-39l.3 1z"/>
  <path fill="#999" d="M-38.7 294.7c-11 0-19.8-9-19.8-19.7V15.7c0-11 9-19.7 19.8-19.7H67c10.8 0 19.7 8.8 19.7 19.6v259c0 10-9 19-19.8 19H-39l.3 1z"/>
  <path fill="#989898" d="M-38.7 294.7c-11 0-19.8-9-19.8-19.7V15.7c0-11 9-19.7 19.8-19.7H67c10.8 0 19.7 8.8 19.7 19.6v259c0 10-9 19-19.8 19H-39l.3 1z"/>
  <path fill="#979797" d="M-38.7 294.7c-11 0-19.7-9-19.7-19.7V15.7c0-11 8.8-19.7 19.7-19.7H67c10.8 0 19.7 8.8 19.7 19.6v259c0 10-9 19-19.8 19H-39l.3 1z"/>
  <path fill="#969696" d="M-38.7 294.7c-11 0-19.7-9-19.7-19.7V15.7c0-11 8.8-19.6 19.7-19.6H67c10.8 0 19.7 9 19.7 19.7v259c0 10-9 19-19.8 19H-39l.3 1z"/>
  <path fill="#959595" d="M-38.7 294.5c-11 0-19.7-8.7-19.7-19.5V15.7c0-11 8.8-19.6 19.7-19.6H67c10.8 0 19.7 9 19.7 19.7v259c0 10-9 19-19.8 19H-39l.3 1z"/>
  <path fill="#949494" d="M-38.7 294.5c-11 0-19.7-8.7-19.7-19.5V15.7c0-11 8.8-19.6 19.7-19.6H67c10.8 0 19.6 9 19.6 19.7v259c0 10-8.8 19-19.7 19H-39l.3 1z"/>
  <path fill="#939393" d="M-38.7 294.5c-11 0-19.7-8.7-19.7-19.5V15.7c0-11 8.8-19.6 19.7-19.6H67c10.8 0 19.6 9 19.6 19.7v259c0 10-8.8 19-19.7 19H-39l.3 1z"/>
  <path fill="#929292" d="M-38.7 294.5c-11 0-19.7-8.7-19.7-19.5V15.7c0-11 9-19.6 19.7-19.6H67c10.8 0 19.6 9 19.6 19.7v259c0 10-8.8 19-19.7 19H-39l.3 1z"/>
  <path fill="#919191" d="M-38.7 294.5c-10.8 0-19.7-8.7-19.7-19.5V15.7c0-11 9-19.6 19.7-19.6H67c10.8 0 19.6 9 19.6 19.7v259c0 10-8.8 19-19.7 19H-39l.3 1z"/>
  <path fill="#909090" d="M-38.7 294.5c-10.8 0-19.6-8.7-19.6-19.5V15.7c0-11 8.8-19.6 19.6-19.6H67c10.8 0 19.6 9 19.6 19.7v259c0 10-8.8 19-19.7 19H-39l.3 1z"/>
  <path fill="#8F8F8F" d="M-38.7 294.5c-10.8 0-19.6-8.7-19.6-19.5V15.7c0-11 8.8-19.6 19.6-19.6H67c10.8 0 19.6 9 19.6 19.6v259.2c0 11-8.8 19.6-19.7 19.6H-39l.3.2z"/>
  <path fill="#8E8E8E" d="M-38.7 294.4c-10.8 0-19.6-8.7-19.6-19.4V15.7c0-11 8.8-19.6 19.6-19.6H67c10.8 0 19.5 9 19.5 19.6v259.2c0 10.8-8.7 19.5-19.6 19.5H-39l.3.2z"/>
  <path fill="#8D8D8D" d="M-38.7 294.4c-10.8 0-19.6-8.7-19.6-19.4V15.7c0-11 8.8-19.6 19.6-19.6H67c10.8 0 19.5 9 19.5 19.6v259.2c0 10.8-8.7 19.5-19.6 19.5H-39l.3.2z"/>
  <path fill="#8C8C8C" d="M-38.7 294.4c-10.8 0-19.6-8.7-19.6-19.4V15.7c0-11 8.8-19.6 19.6-19.6H67c10.7 0 19.5 9 19.5 19.6v259.2c0 10.8-8.8 19.5-19.6 19.5H-39l.3.2z"/>
  <path fill="#8B8B8B" d="M-38.7 294.4c-10.8 0-19.6-8.7-19.6-19.4V15.7c0-11 8.8-19.6 19.6-19.6H67c10.7 0 19.5 9 19.5 19.6v259.2c0 10.8-8.8 19.5-19.6 19.5H-39l.3.2z"/>
  <path fill="#8A8A8A" d="M-38.7 294.4c-10.8 0-19.5-8.7-19.5-19.4V15.7c0-11 8.7-19.6 19.5-19.6H67c10.7 0 19.5 9 19.5 19.6v259.2c0 10.8-8.8 19.5-19.6 19.5H-39l.3.2z"/>
  <path fill="#898989" d="M-38.7 294.4c-10.8 0-19.5-8.7-19.5-19.4V15.7c0-11 8.7-19.5 19.5-19.5H67c10.7 0 19.5 8.6 19.5 19.3v259.2c0 10.8-8.8 19.5-19.6 19.5H-39l.3.2z"/>
  <path fill="#888" d="M-38.7 294.3c-10.8 0-19.5-8.6-19.5-19.3V15.7c0-11 8.7-19.5 19.5-19.5H67c10.7 0 19.5 8.6 19.5 19.3v259.2c0 10.8-8.8 19.4-19.6 19.4H-39l.3.4z"/>
  <path fill="#878787" d="M-38.7 294.3c-10.8 0-19.5-8.6-19.5-19.3V15.7c0-11 8.7-19.5 19.5-19.5H67c10.7 0 19.4 8.6 19.4 19.3v259.2c0 10.8-8.7 19.4-19.5 19.4H-39l.3.4z"/>
  <path fill="#868686" d="M-38.7 294.3c-10.8 0-19.5-8.6-19.5-19.3V15.7c0-11 8.7-19.5 19.5-19.5H67c10.7 0 19.4 8.6 19.4 19.3v259.2c0 10.8-8.7 19.4-19.5 19.4H-39l.3.4z"/>
  <path fill="#858585" d="M-38.7 294.3c-10.7 0-19.5-8.6-19.5-19.3V15.7c0-11 8.8-19.5 19.5-19.5H67c10.7 0 19.4 8.6 19.4 19.3v259.2c0 10.8-8.7 19.4-19.5 19.4H-39l.3.4z"/>
  <path fill="#848484" d="M-38.7 294.3c-10.7 0-19.5-8.6-19.5-19.3V15.7c0-11 8.8-19.5 19.5-19.5H67c10.7 0 19.4 8.6 19.4 19.3v259.2c0 10.8-8.7 19.4-19.5 19.4H-39l.3.4z"/>
  <path fill="#838383" d="M-38.7 294.3c-10.7 0-19.3-8.6-19.3-19.3V15.7C-58 5-49.5-3.8-38.8-3.8H67c10.7 0 19.4 8.7 19.4 19.3v259.2c0 10.8-8.7 19.4-19.5 19.4H-39l.3.4z"/>
  <path fill="#828282" d="M-38.7 294.3c-10.7 0-19.3-8.6-19.3-19.3V15.7C-58 5-49.5-3.7-38.8-3.7H67c10.7 0 19.4 8.6 19.4 19.2v259.2c0 10.8-8.7 19.4-19.5 19.4H-39l.3.4z"/>
  <path fill="#818181" d="M-38.7 294.2c-10.7 0-19.3-8.5-19.3-19.2V15.7C-58 5-49.5-3.7-38.8-3.7H67c10.7 0 19.4 8.6 19.4 19.2v259.2c0 10.7-8.7 19.3-19.5 19.3H-39l.3.2z"/>
  <path fill="gray" d="M-38.7 294.2c-10.7 0-19.3-8.5-19.3-19.2V15.7C-58 5-49.5-3.7-38.8-3.7H67c10.6 0 19.3 8.6 19.3 19.2v259.2c0 10.7-8.7 19.3-19.4 19.3H-39l.3.2z"/>
  <path fill="gray" d="M86.3 275c0 10.6-8.7 19.2-19.4 19.2H-39c-10.4 0-19-8.5-19-19.2V15.7C-58 5-49.5-3.7-38.8-3.7H67c10.6 0 19.3 8.6 19.3 19.2V275z"/>
  <path fill="gray" d="M-59.8 16H88v3.4H-59.8V16zm0 256.3v3.5H88v-3H-59.8v-.5z"/>
  <path d="M86.3 275c0 10.6-8.7 19.2-19.4 19.2H-39c-10.4 0-19-8.5-19-19.2V15.7C-58 5-49.5-3.7-38.8-3.7H67c10.6 0 19.3 8.6 19.3 19.2V275z"/>
  <path fill="#212121" d="M26 10.7c0 .7-.5 1.3-1.3 1.3H3.5c-.8 0-1.4-.6-1.4-1.4 0-1 1-2 2-2h21c1 0 2 0 2 1l-1 1z"/>
  <ellipse cx="18.8" cy="1.7" fill="#212121" rx="2.2" ry="2.2"/>
  <linearGradient id="e" x1="-48.5" x2="76.8" y1="149.4" y2="149.4" gradientUnits="userSpaceOnUse" gradientTransform="matrix(1 0 0 -1 0 292.6)">
    <stop offset="0" stop-color="#2A2A2A"/>
    <stop offset="1"/>
  </linearGradient>
  <path fill="url(#e)" d="M-48.5 29.3H76.8V257H-48.5V29.4z"/>
  <radialGradient id="f" cx="-8.8" cy="280.1" r="2.6" gradientTransform="matrix(1 0 0 -1 0 292.6)" gradientUnits="userSpaceOnUse">
    <stop offset="0" stop-color="#00006B"/>
    <stop offset="1"/>
  </radialGradient>
  <ellipse cx="-8.8" cy="12.5" fill="url(#f)" rx="2.7" ry="2.6"/>
  <linearGradient id="g" x1="2.7" x2="25.6" y1="18.3" y2="18.3" gradientUnits="userSpaceOnUse" gradientTransform="matrix(1 0 0 -1 0 292.6)">
    <stop offset=".1" stop-color="#969696"/>
    <stop offset=".1" stop-color="#A8A8A8"/>
    <stop offset=".2" stop-color="#C2C3C3"/>
    <stop offset=".2" stop-color="#D7D8D8"/>
    <stop offset=".2" stop-color="#E6E7E7"/>
    <stop offset=".3" stop-color="#EEEFEF"/>
    <stop offset=".3" stop-color="#F1F2F2"/>
    <stop offset=".4" stop-color="#F3F4F4"/>
    <stop offset=".4" stop-color="#FAFAFA"/>
    <stop offset=".4" stop-color="#FFF"/>
    <stop offset=".4" stop-color="#F8F8F8"/>
    <stop offset=".5" stop-color="#EAEAEB"/>
    <stop offset=".5" stop-color="#E8E8E9"/>
    <stop offset=".5" stop-color="#E1E1E2"/>
    <stop offset=".5" stop-color="#D6D6D7"/>
    <stop offset=".5" stop-color="#C5C5C6"/>
    <stop offset=".5" stop-color="#B0B0B0"/>
    <stop offset=".5" stop-color="#999"/>
    <stop offset=".6" stop-color="#9D9D9D"/>
    <stop offset=".6" stop-color="#A8A8A8"/>
    <stop offset=".6" stop-color="#BCBCBC"/>
    <stop offset=".7" stop-color="#D7D6D7"/>
    <stop offset=".7" stop-color="#F6F5F6"/>
    <stop offset=".7" stop-color="#F1F0F1"/>
    <stop offset=".8" stop-color="#E2E1E2"/>
    <stop offset=".8" stop-color="#CAC9CA"/>
    <stop offset=".9" stop-color="#A8A7A8"/>
    <stop offset=".9" stop-color="#888688"/>
  </linearGradient>
  <ellipse cx="14.1" cy="274.3" fill="url(#g)" rx="11.4" ry="11.3"/>
  <ellipse cx="14.1" cy="274.3" rx="10.3" ry="10.2"/>
</svg>
