<svg xmlns="http://www.w3.org/2000/svg" width="100" height="141.2" viewBox="-151.2 230.4 100 141.2">
  <style>
    .st0{fill:#131313;} .st1{fill:#1572B6;} .st2{fill:#33A9DC;} .st3{fill:#FFFFFF;} .st4{fill:#EBEBEB;}
  </style>
  <path d="M-73 235.7h-8l8.6 9.3v4.5h-17.8v-5.2h8.7L-90 235v-4.6h17.4v5.3zm-20.8 0h-8.3l8 9.3v4.5h-18v-5.2h8.5l-8.6-9.4v-5h18v5zm-20.8.2h-9v8h9v5H-130v-19h15.4v5z" class="st0"/>
  <path d="M-142.2 360.3l-9-102h100l-9.2 102-41 11.3-40.8-11.3z" class="st1"/>
  <path d="M-101.2 363l33-9.3 8-87.4h-41v96.5z" class="st2"/>
  <path d="M-101.2 303.5h16.5l1.2-12.8h-17.7V278h31.4l-.3 3.5-3 34.5h-28l-1-12.5z" class="st3"/>
  <path d="M-101.2 336l-14-3.7-1-10h-12.4l1.7 19.6 26 7v-13z" class="st4"/>
  <path d="M-85.7 315.5l-1.5 16.7-14 3.8v13l25.6-7v-2.2l2.3-24.3h-12.4z" class="st3"/>
  <path d="M-101.2 278v12.6h-30.3l-.3-2.8-.6-6.4-.3-3.4h31.5zm0 25.5V316H-115l-.2-2.8-.3-6.4-.3-3.4h14.8-.2z" class="st4"/>
</svg>
