<svg xmlns="http://www.w3.org/2000/svg" width="100" height="141.2" viewBox="-150.9 230.4 100 141.2">
  <style>
    .st0{fill:#E44F26;} .st1{fill:#F1662A;} .st2{fill:#EBEBEB;} .st3{fill:#010101;} .st4{fill:#FFFFFF;}
  </style>
  <path d="M-141.8 360.3l-9-102h100l-9.2 102-41 11.3-40.8-11.3z" class="st0"/>
  <path d="M-101 363l33.2-9.3 7.7-87.3h-41V363z" class="st1"/>
  <path d="M-101 304.4h-16.4l-1-12.8h17.6V279h-31.4l.3 3.4 3 34.5h28v-13zm0 32.5l-14-4-.8-10h-12.6l1.7 19 25.7 7v-13z" class="st2"/>
  <path d="M-141.6 230.4h6.4v6.4h5.7v-6.4h6.4v19.2h-7v-6.4h-6v6.4h-6.6v-19.2zm27 6.4h-5.7v-6.4h17.6v6.4h-5.6v12.7h-6.4v-12.7zm14.7-6.4h7l4 6.7 4-6h7v19h-7v-9l-4 6.8-4.4-6.7v9.5h-6V231zm25 0h7v12.8h9v6.3h-16v-19z" class="st3"/>
  <path d="M-101 304.4V317h15.5l-1.5 16-14 4v13l25.6-7.2.2-2 3-33 .3-3.5h-29zm0-25.4v12.5h30.4l.2-2.8.6-6.4.3-3.4H-101z" class="st4"/>
</svg>
